<?xml version="1.0" standalone="no"?>
<!DOCTYPE svg PUBLIC "-//W3C//DTD SVG 20010904//EN"
 "http://www.w3.org/TR/2001/REC-SVG-20010904/DTD/svg10.dtd">
<svg version="1.0" xmlns="http://www.w3.org/2000/svg"
 width="590.000000pt" height="162.000000pt" viewBox="0 0 590.000000 162.000000"
 preserveAspectRatio="xMidYMid meet">
<metadata>
Created by potrace 1.15, written by Peter Selinger 2001-2017
</metadata>
<g transform="translate(0.000000,162.000000) scale(0.100000,-0.100000)"
fill="#000000" stroke="none">
<path d="M92 1403 c-44 -21 -67 -69 -58 -117 9 -45 34 -62 126 -86 95 -25 120
-42 120 -84 0 -19 -7 -40 -17 -49 -41 -36 -144 -29 -204 14 -24 17 -28 17 -33
3 -9 -24 -10 -23 46 -49 100 -47 210 -27 243 42 35 72 -10 127 -121 152 -113
25 -148 64 -107 119 30 41 96 51 156 24 44 -20 67 -16 51 9 -23 37 -144 51
-202 22z"/>
<path d="M470 1214 c0 -190 1 -205 18 -202 15 3 17 22 20 206 2 197 2 202 -18
202 -19 0 -20 -6 -20 -206z"/>
<path d="M680 1215 c0 -197 1 -205 20 -205 19 0 20 8 22 165 l3 166 130 -163
c72 -90 137 -163 145 -163 13 0 15 33 18 203 2 196 2 202 -18 202 -19 0 -20
-8 -22 -166 l-3 -167 -132 167 c-73 91 -140 166 -148 166 -13 0 -15 -29 -15
-205z"/>
<path d="M1290 1409 c-36 -15 -79 -58 -102 -103 -30 -59 -22 -151 18 -208 60
-86 167 -113 241 -60 39 28 43 28 43 -3 0 -16 6 -25 15 -25 12 0 15 18 15 100
l0 100 -60 0 c-47 0 -60 -3 -60 -15 0 -11 12 -15 45 -15 45 0 45 0 45 -34 0
-26 -7 -41 -30 -60 -80 -67 -190 -44 -234 48 -20 42 -21 128 -1 165 20 40 70
79 108 86 40 8 111 -18 132 -48 8 -12 20 -17 30 -13 21 8 6 37 -37 67 -36 26
-126 36 -168 18z"/>
<path d="M1740 1273 c-34 -82 -71 -168 -81 -192 -24 -54 -24 -73 -2 -69 11 2
27 28 42 66 l24 63 95 -3 94 -3 22 -54 c20 -52 48 -82 61 -69 4 3 -31 96 -77
207 -61 147 -87 201 -100 201 -11 0 -34 -41 -78 -147z m120 0 c19 -48 37 -91
38 -95 2 -5 -33 -8 -77 -8 -45 0 -81 4 -81 8 0 5 12 37 26 73 15 35 30 74 35
87 5 12 12 22 16 22 5 0 24 -39 43 -87z"/>
<path d="M2132 1218 c3 -184 5 -203 21 -206 15 -3 17 5 17 71 l0 75 90 4 c85
3 91 5 121 34 60 60 48 161 -24 204 -26 16 -50 20 -130 20 l-97 0 2 -202z
m227 136 c13 -16 21 -41 21 -64 0 -23 -8 -48 -21 -64 -19 -24 -26 -26 -105
-26 l-84 0 0 90 0 90 84 0 c79 0 86 -2 105 -26z"/>
<path d="M2642 1399 c-50 -25 -86 -74 -102 -141 -30 -119 67 -248 185 -248
118 0 215 129 185 248 -16 68 -52 116 -102 141 -56 27 -111 27 -166 0z m158
-38 c88 -62 101 -184 29 -266 -121 -138 -320 37 -234 205 42 81 136 109 205
61z"/>
<path d="M3062 1218 c3 -184 5 -203 21 -206 15 -3 17 6 17 72 l0 76 63 0 64 0
47 -75 c32 -51 54 -75 67 -75 10 0 19 3 19 6 0 3 -21 37 -46 76 l-45 71 35 29
c59 49 66 132 15 187 -32 34 -61 41 -165 41 l-94 0 2 -202z m229 136 c16 -18
24 -37 24 -64 0 -27 -8 -46 -24 -64 -22 -24 -31 -26 -108 -26 l-83 0 0 90 0
90 83 0 c77 0 86 -2 108 -26z"/>
<path d="M3510 1215 l0 -205 136 0 c124 0 135 2 132 18 -3 15 -18 17 -116 20
l-112 3 0 74 0 74 98 3 c78 2 97 6 97 18 0 12 -19 16 -97 18 l-98 3 0 69 0 69
112 3 c98 3 113 5 116 21 3 15 -8 17 -132 17 l-136 0 0 -205z"/>
<path d="M130 728 c-106 -54 -139 -193 -71 -300 53 -83 156 -111 238 -64 l42
24 3 -21 c2 -12 11 -23 21 -25 15 -3 17 7 17 97 l0 101 -66 0 c-48 0 -65 -3
-62 -12 3 -7 23 -14 46 -16 42 -3 42 -4 42 -42 0 -30 -6 -43 -26 -59 -68 -53
-149 -46 -207 18 -108 119 -4 323 142 281 19 -5 47 -22 63 -37 22 -21 31 -24
40 -15 9 9 6 18 -13 38 -52 57 -135 69 -209 32z"/>
<path d="M510 546 l0 -206 136 0 c124 0 135 2 132 18 -3 15 -18 17 -115 20
l-113 3 -2 182 c-3 164 -5 182 -20 185 -17 3 -18 -12 -18 -202z"/>
<path d="M955 733 c-74 -39 -115 -105 -115 -188 0 -150 136 -245 265 -186 50
23 68 43 96 106 70 159 -100 345 -246 268z m144 -39 c74 -44 102 -153 59 -234
-57 -106 -180 -114 -252 -16 -17 22 -21 42 -21 100 0 64 3 77 29 110 15 21 38
41 50 46 35 14 106 11 135 -6z"/>
<path d="M1344 737 c-2 -7 -3 -98 -2 -202 l3 -190 102 -3 c120 -3 163 10 188
59 22 42 13 85 -27 126 -18 18 -27 33 -20 33 16 0 42 53 42 85 0 36 -28 81
-57 94 -35 16 -222 14 -229 -2z m227 -46 c28 -35 25 -85 -8 -111 -23 -18 -38
-20 -102 -18 l-76 3 -3 64 c-2 35 -1 70 2 77 4 10 27 13 87 11 71 -2 84 -5
100 -26z m14 -186 c30 -30 32 -64 4 -99 -19 -25 -25 -26 -115 -26 l-94 0 0 75
0 75 90 0 c83 0 93 -2 115 -25z"/>
<path d="M1881 728 c-5 -13 -41 -99 -81 -193 -40 -93 -74 -176 -77 -183 -4
-10 1 -13 17 -10 17 2 28 18 47 66 l25 62 93 0 93 0 25 -62 c18 -46 30 -64 46
-66 11 -2 21 -2 21 0 0 2 -38 93 -84 203 -84 203 -105 234 -125 183z m68 -131
c17 -43 31 -82 31 -87 0 -6 -33 -10 -75 -10 -41 0 -75 4 -75 10 0 9 21 65 55
144 9 22 20 35 25 30 5 -5 22 -44 39 -87z"/>
<path d="M2200 546 l0 -206 135 0 c128 0 135 1 135 20 0 19 -7 20 -115 20
l-115 0 -2 182 c-3 165 -5 183 -20 186 -17 3 -18 -12 -18 -202z"/>
<path d="M2760 545 c0 -198 1 -205 20 -205 19 0 20 7 20 166 l0 166 131 -163
c73 -91 139 -165 150 -167 18 -3 19 5 19 202 0 198 -1 206 -20 206 -19 0 -20
-8 -22 -167 l-3 -168 -134 168 c-74 92 -141 167 -148 167 -10 0 -13 -43 -13
-205z"/>
<path d="M3250 545 l0 -205 135 0 c128 0 135 1 135 20 0 19 -7 20 -115 20
l-115 0 0 75 0 75 101 0 c90 0 100 2 97 18 -3 14 -17 17 -101 20 l-97 3 0 69
0 69 113 3 c92 2 112 6 112 18 0 12 -23 15 -132 18 l-133 3 0 -206z"/>
<path d="M3610 730 c0 -18 6 -20 70 -20 l70 0 0 -185 c0 -178 1 -185 20 -185
19 0 20 7 20 185 l0 184 73 3 c56 2 72 6 72 18 0 13 -26 15 -162 18 -158 2
-163 2 -163 -18z"/>
<path d="M4010 738 c0 -7 37 -100 81 -205 60 -141 86 -193 99 -193 11 0 28 28
56 95 21 52 43 93 47 92 5 -1 26 -43 47 -92 28 -66 43 -90 56 -90 14 0 37 45
101 194 46 107 83 198 83 203 0 4 -7 8 -15 8 -17 0 -34 -33 -108 -215 -29 -72
-57 -130 -62 -130 -4 0 -24 37 -43 83 l-35 83 32 80 c18 44 31 83 27 86 -13
14 -33 -10 -54 -66 -13 -34 -27 -59 -32 -56 -4 2 -18 32 -30 65 -17 44 -27 60
-41 60 -18 0 -19 -2 -3 -37 8 -21 24 -59 35 -85 l18 -47 -36 -86 c-20 -47 -39
-85 -43 -85 -3 0 -38 78 -76 173 -48 116 -76 173 -87 175 -9 2 -17 -2 -17 -10z"/>
<path d="M4781 739 c-48 -19 -84 -54 -107 -103 -37 -79 -29 -153 23 -224 58
-78 176 -95 251 -36 120 96 105 284 -28 352 -46 23 -98 27 -139 11z m136 -49
c95 -57 96 -224 2 -291 -40 -28 -104 -30 -150 -3 -42 24 -79 94 -79 148 0 53
35 124 74 147 41 25 111 25 153 -1z"/>
<path d="M5159 733 c-4 -16 -4 -140 0 -330 1 -48 4 -63 16 -63 11 0 15 17 17
73 l3 72 61 3 61 3 47 -76 c33 -51 54 -75 67 -75 10 0 19 2 19 5 0 3 -20 37
-44 76 l-45 72 32 21 c20 13 38 38 47 63 13 39 12 46 -5 89 -29 67 -65 84
-181 84 -79 0 -92 -2 -95 -17z m219 -45 c28 -31 37 -72 22 -109 -18 -42 -37
-49 -129 -49 l-81 0 0 83 c0 46 3 87 7 90 3 4 41 7 83 7 66 0 79 -3 98 -22z"/>
<path d="M5580 546 c0 -199 1 -206 20 -206 18 0 20 7 20 65 0 58 3 68 31 100
17 19 35 35 40 35 5 0 43 -45 85 -100 48 -62 84 -100 96 -100 10 0 18 2 18 6
0 3 -24 35 -53 72 -29 37 -67 86 -85 109 l-33 42 82 88 c67 71 79 89 64 92
-13 2 -50 -30 -129 -115 l-111 -118 -5 115 c-4 98 -7 114 -22 117 -17 3 -18
-12 -18 -202z"/>
</g>
</svg>
