<?xml version="1.0" encoding="UTF-8"?>
<svg width="870px" height="364px" viewBox="0 0 870 364" version="1.1" xmlns="http://www.w3.org/2000/svg" xmlns:xlink="http://www.w3.org/1999/xlink">
    <!-- Generator: Sketch 58 (84663) - https://sketch.com -->
    <title>SGN Logo_1</title>
    <desc>Created with Sketch.</desc>
    <defs>
        <linearGradient x1="92.6167566%" y1="58.163266%" x2="11.5150922%" y2="40.3668117%" id="linearGradient-1">
            <stop stop-color="#EB2E3A" offset="0%"></stop>
            <stop stop-color="#E62E39" offset="49.47%"></stop>
            <stop stop-color="#DB2B35" offset="67.31%"></stop>
            <stop stop-color="#CB2830" offset="80.03%"></stop>
            <stop stop-color="#B6242A" offset="90.25%"></stop>
            <stop stop-color="#9C1F21" offset="98.97%"></stop>
            <stop stop-color="#991E20" offset="100%"></stop>
            <stop stop-color="#991E20" offset="100%"></stop>
        </linearGradient>
    </defs>
    <g id="Page-1" stroke="none" stroke-width="1" fill="none" fill-rule="evenodd">
        <g id="Responsive-Web-Fold-Copy" transform="translate(-279.000000, -907.000000)" fill-rule="nonzero">
            <g id="SGN-Logo_1" transform="translate(279.000000, 907.000000)">
                <g id="Group">
                    <path d="M32.17,175.38 C30.27,176.68 28.37,177.97 26.45,179.25 C25.33,180 24.21,180.74 23.08,181.47 L21.39,182.58 L19.69,183.67 C15.16,186.59 10.56,189.4 5.93,192.22 L5.93,192.22 C5.44,192.52 5.23,193.13 5.45,193.68 C5.64,194.14 6.08,194.42 6.55,194.42 C6.7,194.42 6.85,194.39 6.99,194.33 C12.04,192.29 17.03,190.06 21.93,187.67 C24.39,186.48 26.83,185.25 29.24,183.98 C30.28,183.44 31.32,182.89 32.36,182.33 C32.27,180.01 32.21,177.69 32.17,175.38 M71.39,144.79 C67.28,148.42 63.09,151.97 58.83,155.43 C53.25,159.97 47.54,164.37 41.72,168.62 C41.75,171.39 41.81,174.17 41.9,176.94 C49.53,172.43 56.95,167.57 64.16,162.38 C68.13,159.52 72.03,156.56 75.86,153.51 C74.32,150.62 72.84,147.72 71.39,144.79 M116.92,97.03 C113.06,101.85 109.1,106.57 105,111.19 C101.48,115.19 97.86,119.1 94.16,122.94 C90.48,126.79 86.69,130.55 82.84,134.24 C81.09,135.92 79.32,137.59 77.53,139.24 L77.58,139.34 L78.88,141.7 L80.21,144.04 L81.54,146.38 L82.51,148.05 C93.36,138.88 103.57,128.95 113.04,118.35 C118.27,112.53 123.25,106.48 127.99,100.25 C124.32,99.12 120.63,98.05 116.92,97.03 M164.39,37.88 C161.43,38.38 158.48,38.92 155.54,39.51 L153.68,42.85 L151.65,46.32 L150.65,48.06 C150.31,48.64 149.99,49.22 149.64,49.79 L147.56,53.22 L146.52,54.94 L146.01,55.8 C145.84,56.09 145.65,56.37 145.48,56.65 L143.34,60.04 C137.61,69.06 131.56,77.86 125.17,86.39 C124.74,86.96 124.31,87.54 123.87,88.11 C127.5,89.03 131.11,90.03 134.7,91.09 C140.68,82.6 146.22,73.8 151.25,64.73 L153.24,61.13 C153.4,60.83 153.57,60.53 153.73,60.23 L154.21,59.32 L155.15,57.49 L157.03,53.83 C157.35,53.22 157.64,52.6 157.94,51.99 L158.84,50.14 L160.61,46.43 L162.3,42.68 L163.14,40.81 C163.42,40.18 163.7,39.56 163.96,38.93 L164.39,37.88 M174.94,2.61 C174.49,2.61 174.07,2.86 173.86,3.29 L173.85,3.3 C171.54,8.2 169.24,13.09 166.86,17.92 L166.42,18.83 L165.96,19.73 L165.05,21.53 L164.14,23.33 C163.84,23.93 163.54,24.53 163.22,25.13 L161.36,28.71 L160.72,29.94 C163.16,29.51 165.6,29.12 168.05,28.76 L168.54,27.49 C168.79,26.86 169.02,26.21 169.25,25.57 L169.94,23.64 L170.63,21.71 L170.97,20.75 L171.29,19.78 L172.58,15.89 L172.9,14.92 L173.2,13.94 L173.8,11.98 C174.61,9.37 175.33,6.74 176.04,4.11 C176.19,3.57 175.93,2.98 175.4,2.73 C175.28,2.65 175.11,2.61 174.94,2.61" id="Shape" fill="#FBD0D3"></path>
                    <path d="M51.99,279.5 C47.78,281.43 43.53,283.3 39.26,285.13 L39.26,285.13 C38.87,285.3 38.65,285.73 38.77,286.15 C38.88,286.53 39.22,286.77 39.59,286.77 C39.67,286.77 39.75,286.76 39.83,286.74 C44.3,285.46 48.75,284.06 53.16,282.55 C52.76,281.54 52.37,280.52 51.99,279.5 M129.39,232.93 L127.36,234.49 C126.62,235.07 125.86,235.62 125.11,236.18 L122.85,237.86 C121.35,238.99 119.81,240.07 118.29,241.17 C106.06,249.92 93.31,257.97 80.11,265.28 L77.63,266.64 L76.39,267.32 L75.14,267.98 L72.64,269.31 C71.81,269.76 70.97,270.18 70.13,270.62 L67.61,271.92 L65.08,273.19 C63.4,274.05 61.69,274.87 59.99,275.71 C59.44,275.97 58.9,276.24 58.35,276.5 C58.73,277.76 59.12,279.01 59.51,280.27 C67.39,277.36 75.17,274.11 82.81,270.57 C96.74,264.11 110.22,256.64 123.14,248.25 C127.3,245.56 131.4,242.77 135.43,239.88 C133.81,238.04 132.2,236.19 130.61,234.33 C130.2,233.88 129.79,233.41 129.39,232.93 M215.87,138.46 C214.5,140.61 213.11,142.74 211.7,144.86 C207.54,151.09 203.18,157.18 198.66,163.16 L196.96,165.39 C196.39,166.13 195.83,166.88 195.24,167.61 L191.75,172.01 C190.57,173.47 189.37,174.9 188.18,176.35 L186.39,178.51 C185.79,179.23 185.17,179.93 184.56,180.64 L180.89,184.89 L177.12,189.05 C176.49,189.74 175.87,190.45 175.23,191.13 L173.3,193.17 L171.37,195.21 C170.72,195.89 170.09,196.58 169.43,197.24 L165.49,201.24 C165.16,201.57 164.84,201.91 164.5,202.24 L163.49,203.22 L161.47,205.18 L159.46,207.14 C158.79,207.79 158.09,208.42 157.41,209.06 L155.36,210.98 L154.33,211.94 C153.99,212.26 153.65,212.58 153.3,212.89 C148.26,217.48 143.08,221.93 137.81,226.25 C138.13,226.62 138.44,226.99 138.76,227.36 C140.54,229.4 142.33,231.44 144.13,233.46 C149.56,229.29 154.87,224.95 160.05,220.46 C165.85,215.37 171.51,210.11 176.96,204.64 C177.65,203.97 178.31,203.26 178.99,202.57 L181,200.49 L183.01,198.41 C183.68,197.71 184.32,197 184.98,196.29 L188.9,192.02 L192.72,187.66 C193.35,186.93 194,186.21 194.62,185.47 L196.47,183.24 L198.32,181.01 L199.25,179.9 C199.56,179.53 199.87,179.16 200.17,178.78 L203.76,174.23 C204.36,173.48 204.94,172.7 205.52,171.93 L207.26,169.62 C207.84,168.85 208.43,168.08 208.99,167.3 L210.68,164.95 C211.81,163.38 212.95,161.83 214.03,160.22 L215.67,157.83 L216.49,156.64 C216.77,156.24 217.04,155.84 217.3,155.44 L220.47,150.6 C221.94,148.31 223.37,146.01 224.78,143.69 C221.83,141.9 218.86,140.16 215.87,138.46 M261.3,39.07 C260.87,40.49 260.43,41.9 259.98,43.31 C257.71,50.53 255.25,57.68 252.59,64.74 L251.6,67.39 L250.57,70.03 C249.9,71.79 249.17,73.53 248.47,75.28 L247.94,76.59 L247.4,77.89 L246.31,80.5 C245.95,81.37 245.57,82.23 245.2,83.09 L244.07,85.68 C241.04,92.57 237.83,99.37 234.41,106.06 C229.89,114.93 225.03,123.6 219.85,132.08 C222.6,134.09 225.31,136.16 227.96,138.3 C229.42,135.78 230.85,133.25 232.25,130.69 C235.94,123.91 239.4,117.02 242.59,110 C245.78,102.99 248.73,95.86 251.4,88.65 L252.38,85.94 C252.7,85.03 253.04,84.13 253.35,83.22 L254.29,80.49 L254.76,79.13 L255.21,77.76 C255.81,75.93 256.41,74.11 256.96,72.27 L257.81,69.52 L258.62,66.76 C259.17,64.92 259.67,63.07 260.17,61.21 L260.55,59.82 L260.91,58.43 L261.63,55.64 L262.31,52.84 C262.53,51.91 262.76,50.98 262.97,50.04 L263.61,47.24 C263.82,46.31 264.01,45.37 264.21,44.43 C264.41,43.49 264.6,42.56 264.78,41.61 L265.14,39.8 C263.86,39.55 262.58,39.31 261.3,39.07 M267.13,20.82 C266.75,20.82 266.41,21.07 266.3,21.45 C265.22,25.48 264.11,29.49 262.95,33.48 C264.01,33.75 265.07,34.04 266.13,34.33 C266.2,33.93 266.27,33.53 266.33,33.13 C266.96,29.35 267.53,25.57 267.98,21.78 C268.03,21.36 267.77,20.96 267.35,20.85 C267.28,20.83 267.21,20.82 267.13,20.82" id="Shape" fill="#FBD0D3"></path>
                    <path d="M196.09,296.5 C196.02,296.56 195.94,296.61 195.87,296.67 L193.3,298.61 C192.44,299.25 191.6,299.91 190.73,300.54 L188.12,302.43 C186.38,303.69 184.66,304.98 182.89,306.19 C175.9,311.18 168.72,315.91 161.44,320.49 C154.15,325.06 146.73,329.46 139.19,333.68 L136.36,335.26 L133.51,336.82 C132.56,337.34 131.61,337.86 130.66,338.37 L127.79,339.9 C125.88,340.94 123.95,341.92 122.03,342.94 C121.07,343.46 120.1,343.94 119.14,344.44 C118.17,344.94 117.21,345.45 116.25,345.95 L116.24,345.96 C115.76,346.21 115.51,346.78 115.67,347.31 C115.82,347.81 116.28,348.14 116.78,348.14 C116.89,348.14 117,348.12 117.11,348.09 C125.51,345.58 133.75,342.53 141.85,339.14 C149.95,335.74 157.91,331.97 165.68,327.83 L168.59,326.27 L170.05,325.49 C170.53,325.22 171.01,324.95 171.49,324.68 C173.4,323.59 175.32,322.51 177.23,321.4 C179.13,320.28 181,319.12 182.89,317.98 L183.6,317.55 L184.3,317.11 L185.7,316.22 L188.49,314.45 C190.36,313.28 192.17,312.02 194,310.79 L196.74,308.93 C197.2,308.63 197.64,308.3 198.09,307.98 L199.44,307.02 L202.13,305.09 C203.02,304.44 203.93,303.82 204.81,303.14 L204.92,303.06 C201.95,300.92 199,298.73 196.09,296.5 M278.71,218.78 C278.4,218.78 278.09,218.91 277.86,219.15 L277.85,219.16 C271.92,225.57 266.13,232.01 260.16,238.27 L257.92,240.61 L256.81,241.79 L255.68,242.95 C254.18,244.5 252.68,246.05 251.17,247.58 L248.9,249.88 L246.61,252.15 C245.85,252.91 245.09,253.67 244.32,254.42 L242.01,256.67 C229.75,268.59 217.01,279.95 203.68,290.6 C206.51,292.92 209.36,295.21 212.23,297.48 C212.38,297.36 212.53,297.24 212.68,297.12 L215.26,295.05 L217.84,292.97 L220.37,290.84 L222.9,288.7 C223.74,287.98 224.56,287.25 225.39,286.52 C227.04,285.05 228.7,283.6 230.3,282.08 L232.72,279.83 C233.53,279.08 234.31,278.3 235.1,277.54 C236.68,276 238.26,274.46 239.8,272.88 C241.34,271.3 242.89,269.74 244.38,268.11 L246.63,265.69 L247.19,265.08 L247.74,264.46 L248.84,263.23 L251.03,260.76 C251.76,259.94 252.47,259.09 253.18,258.25 C253.89,257.41 254.61,256.57 255.31,255.73 L257.39,253.17 L258.43,251.89 C258.78,251.46 259.13,251.04 259.46,250.6 L261.48,247.99 C262.84,246.26 264.13,244.48 265.44,242.71 C266.74,240.94 268,239.13 269.25,237.33 L270.18,235.97 L271.1,234.6 L272.02,233.23 L272.92,231.85 L274.69,229.07 C275.27,228.14 275.83,227.19 276.41,226.26 C277.55,224.39 278.64,222.47 279.7,220.55 C279.95,220.09 279.87,219.51 279.47,219.14 C279.27,218.89 278.99,218.78 278.71,218.78" id="Shape" fill="#FBD0D3"></path>
                    <path d="M227.98,138.29 C226.93,140.1 225.86,141.9 224.77,143.69 C224.83,143.73 224.9,143.77 224.96,143.81 C225.92,144.39 226.87,144.98 227.83,145.57 C228.78,146.17 229.74,146.75 230.68,147.36 L232.1,148.26 L233.51,149.18 C234.46,149.78 235.39,150.41 236.33,151.03 C238.2,152.28 240.06,153.55 241.91,154.85 C243.76,156.15 245.59,157.48 247.43,158.82 L247.43,158.82 C247.54,158.9 247.66,158.94 247.79,158.94 C247.93,158.94 248.07,158.89 248.18,158.8 C248.44,158.58 248.48,158.2 248.27,157.93 C245.36,154.38 242.18,151.06 238.88,147.87 C235.56,144.7 232.11,141.65 228.54,138.75 C228.35,138.59 228.17,138.44 227.98,138.29 M134.7,91.08 C134.35,91.58 134,92.08 133.64,92.57 C131.8,95.15 129.91,97.71 127.99,100.23 C136.33,102.78 144.59,105.59 152.74,108.68 C161.08,111.83 169.3,115.29 177.44,118.98 C185.58,122.66 193.63,126.54 201.55,130.67 C206.37,133.18 211.15,135.77 215.87,138.46 C217.22,136.34 218.55,134.21 219.86,132.07 C215.37,128.81 210.76,125.71 206.06,122.78 C202.16,120.35 198.19,118.02 194.17,115.8 C190.15,113.58 186.07,111.46 181.94,109.44 C173.69,105.4 165.23,101.75 156.62,98.48 C149.41,95.73 142.09,93.26 134.7,91.08 M266.13,34.33 C265.87,35.82 265.6,37.3 265.33,38.79 L265.13,39.8 C269.06,40.56 272.99,41.4 276.9,42.31 C282.44,43.6 287.96,45.04 293.45,46.61 C298.94,48.18 304.41,49.89 309.88,51.67 C309.88,51.67 309.89,51.67 309.89,51.67 C309.91,51.67 309.92,51.66 309.93,51.65 C309.94,51.63 309.93,51.6 309.91,51.59 C304.84,48.86 299.62,46.41 294.32,44.14 C291.67,43.01 288.98,41.94 286.29,40.91 C284.94,40.41 283.58,39.9 282.22,39.42 C280.86,38.93 279.49,38.46 278.12,38 C274.17,36.67 270.17,35.44 266.13,34.33 M160.74,29.95 C142.49,33.17 124.61,38.4 107.49,45.4 C96.74,49.81 86.28,54.9 76.2,60.65 C70.76,63.76 65.44,67.05 60.24,70.53 C60.09,70.81 59.94,71.1 59.8,71.39 C57.59,75.69 55.58,80.14 53.44,84.71 L53.44,84.72 C60.75,85.62 68.02,86.64 75.25,87.86 C84.09,89.35 92.86,91.11 101.56,93.13 C106.71,94.33 111.83,95.64 116.92,97.03 C119.28,94.09 121.59,91.11 123.87,88.1 C117.14,86.38 110.35,84.91 103.52,83.67 C94.47,82.05 85.36,80.83 76.21,80.11 C69.79,79.6 63.36,79.3 56.93,79.28 C73.91,68.74 91.78,59.74 110.37,52.66 C125.05,47.05 140.17,42.62 155.54,39.51 L155.64,39.33 C156.28,38.15 156.97,37 157.6,35.82 L159.5,32.27 L160.46,30.5 L160.74,29.95 M204.27,26.12 C200.27,26.12 196.26,26.21 192.27,26.41 C186.45,26.7 180.65,27.19 174.86,27.87 C172.59,28.14 170.33,28.44 168.07,28.77 L167.08,31.32 L166.33,33.23 L165.54,35.12 L164.39,37.87 C168.2,37.23 172.03,36.68 175.87,36.2 C186.68,34.86 197.57,34.22 208.47,34.22 C220.14,34.22 231.81,34.96 243.42,36.36 C249.4,37.08 255.36,37.98 261.3,39.06 C261.87,37.2 262.42,35.34 262.96,33.47 C262.46,33.34 261.96,33.22 261.46,33.09 C255.84,31.68 250.16,30.46 244.43,29.48 C238.71,28.49 232.94,27.72 227.15,27.16 C221.36,26.61 215.55,26.28 209.73,26.15 C207.91,26.14 206.09,26.12 204.27,26.12" id="Shape" fill="#FBD0D3"></path>
                    <path d="M123.87,88.1 C121.59,91.11 119.28,94.08 116.92,97.03 C120.62,98.05 124.31,99.12 127.98,100.24 C129.9,97.71 131.78,95.16 133.63,92.58 C133.98,92.08 134.34,91.58 134.69,91.09 C131.11,90.02 127.5,89.03 123.87,88.1 M168.07,28.76 C165.62,29.12 163.18,29.51 160.74,29.94 L160.45,30.49 L159.49,32.26 L157.59,35.81 C156.96,36.99 156.27,38.15 155.63,39.32 L155.53,39.5 C158.47,38.91 161.42,38.36 164.38,37.87 L165.53,35.12 L166.32,33.23 L167.07,31.32 L168.07,28.76" id="Shape" fill="#F7AFB8"></path>
                    <path d="M219.86,132.07 C218.55,134.21 217.22,136.34 215.87,138.46 C218.86,140.16 221.82,141.9 224.77,143.69 C225.86,141.9 226.92,140.1 227.98,138.29 C225.33,136.15 222.62,134.07 219.86,132.07 M262.96,33.48 C262.42,35.35 261.86,37.21 261.3,39.07 C262.58,39.3 263.86,39.54 265.14,39.79 L265.34,38.78 C265.61,37.29 265.88,35.81 266.14,34.32 C265.08,34.04 264.02,33.76 262.96,33.48" id="Shape" fill="#F7AFB8"></path>
                    <path d="M212.24,297.46 C211.53,298.03 210.82,298.61 210.09,299.15 L204.92,303.06 C207.14,304.67 209.37,306.25 211.62,307.81 C214.62,309.89 217.65,311.93 220.69,313.93 C222.22,314.93 223.75,315.92 225.29,316.9 L227.6,318.36 C228.37,318.85 229.14,319.33 229.92,319.81 C236.13,323.64 242.42,327.31 248.83,330.78 C255.23,334.26 261.72,337.55 268.32,340.61 C268.55,340.72 268.8,340.77 269.04,340.77 C269.61,340.77 270.17,340.49 270.49,339.97 C270.99,339.17 270.75,338.11 269.95,337.61 L269.94,337.61 C266.88,335.69 263.82,333.78 260.79,331.84 C259.28,330.86 257.75,329.9 256.25,328.91 L253.99,327.44 L251.74,325.95 L247.25,322.96 L242.79,319.92 L240.57,318.39 L238.36,316.85 C236.89,315.82 235.42,314.78 233.96,313.74 C226.57,308.49 219.33,303.06 212.24,297.46 M59.5,280.29 C57.39,281.07 55.28,281.82 53.16,282.55 C53.97,284.62 54.8,286.69 55.65,288.74 C59.51,298.05 63.84,307.15 68.69,315.95 C68.99,316.5 69.58,316.84 70.19,316.84 C70.4,316.84 70.61,316.8 70.82,316.72 C71.7,316.37 72.13,315.38 71.78,314.5 L71.78,314.49 C69.94,309.86 68.14,305.24 66.43,300.58 L65.16,297.09 L63.92,293.59 L62.71,290.08 L61.53,286.56 C60.83,284.47 60.16,282.38 59.5,280.29 M144.12,233.46 C141.26,235.66 138.36,237.81 135.43,239.91 C153.18,260 172.8,278.45 193.96,294.85 C194.67,295.4 195.38,295.95 196.09,296.49 C196.87,295.9 197.66,295.32 198.43,294.71 L203.49,290.74 C203.56,290.69 203.62,290.63 203.69,290.58 C202.43,289.54 201.17,288.5 199.91,287.45 C188.92,278.26 178.31,268.65 168.1,258.63 C165.54,256.13 163.03,253.59 160.52,251.04 L156.79,247.19 L153.1,243.3 C150.06,240.06 147.07,236.78 144.12,233.46 M41.89,176.94 C40.09,178 38.28,179.05 36.46,180.07 C35.1,180.83 33.74,181.58 32.37,182.33 C32.62,188.51 33.05,194.68 33.65,200.83 C35.64,220.98 39.61,240.92 45.46,260.26 C47.42,266.75 49.6,273.18 51.99,279.52 C54.12,278.54 56.23,277.55 58.34,276.54 C56.5,270.43 54.8,264.28 53.25,258.11 C48.44,238.97 45.07,219.52 43.29,199.92 C42.59,192.26 42.13,184.61 41.89,176.94 M82.51,148.04 C80.31,149.9 78.09,151.72 75.84,153.52 C77.41,156.51 79.01,159.48 80.65,162.43 C94.52,187.42 110.88,211.09 129.39,232.94 L131.83,231.07 L136.23,227.56 C136.76,227.13 137.28,226.7 137.81,226.27 C133.48,221.2 129.24,216.06 125.09,210.84 C122.89,208.02 120.67,205.21 118.53,202.35 C117.45,200.93 116.36,199.51 115.31,198.06 C114.25,196.62 113.18,195.19 112.13,193.74 C107.93,187.95 103.86,182.06 99.89,176.1 L98.41,173.86 C97.91,173.11 97.42,172.37 96.94,171.61 L94.04,167.09 L91.19,162.54 L88.38,157.96 L87.68,156.81 L86.99,155.66 L85.62,153.35 C84.69,151.82 83.81,150.26 82.91,148.71 L82.51,148.04 M51.93,86.51 L51.8,86.59 L48.47,88.71 C47.39,89.41 46.31,90.11 45.27,90.83 C44.42,91.41 43.58,92 42.75,92.61 C41.09,98.44 39.64,104.35 38.38,110.29 C36.29,120.16 34.72,130.15 33.69,140.21 C32.66,150.27 32.13,160.39 32.1398611,170.51 C32.1398611,172.13 32.15,173.76 32.18,175.38 C32.5,175.16 32.81,174.94 33.13,174.72 C36.02,172.72 38.89,170.69 41.72,168.62 C41.62,159.39 41.84,150.14 42.37,140.91 C42.92,131.07 43.86,121.24 45.08,111.42 C45.71,106.52 46.39,101.61 47.17,96.71 C47.36,95.49 47.55,94.26 47.76,93.04 L48.37,89.37 L48.47,88.81 C52.23,100.44 56.58,111.89 61.4,123.15 C64.53,130.45 67.87,137.67 71.4,144.8 C73.47,142.97 75.52,141.12 77.55,139.25 L76.3,136.99 L75.02,134.62 L73.74,132.25 C73.31,131.46 72.9,130.66 72.48,129.87 L71.23,127.49 C70.81,126.7 70.41,125.89 70,125.1 L68.77,122.71 C68.36,121.91 67.96,121.11 67.56,120.3 L66.35,117.89 L65.17,115.47 L63.98,113.05 L62.81,110.62 C62.02,109 61.27,107.37 60.51,105.74 L59.93,104.52 L59.37,103.29 L58.24,100.84 C56.07,96.09 53.98,91.31 51.93,86.51" id="Shape" fill="#FBD0D3"></path>
                    <path d="M41.71,168.62 C38.87,170.69 36.01,172.72 33.12,174.72 C32.8,174.94 32.49,175.16 32.17,175.38 C32.21,177.7 32.27,180.01 32.37,182.33 C33.74,181.59 35.1,180.83 36.46,180.07 C38.28,179.05 40.09,178.01 41.89,176.94 C41.8,174.17 41.74,171.39 41.71,168.62 M77.54,139.24 C75.51,141.11 73.46,142.96 71.39,144.79 C72.84,147.71 74.33,150.62 75.84,153.51 C78.09,151.72 80.31,149.89 82.51,148.03 L81.54,146.36 L80.21,144.02 L78.88,141.68 L77.58,139.32 L77.54,139.24" id="Shape" fill="#F7AFB8"></path>
                    <path d="M58.34,276.52 C56.23,277.53 54.11,278.52 51.99,279.5 C52.37,280.52 52.76,281.53 53.16,282.55 C55.28,281.82 57.4,281.07 59.5,280.29 C59.11,279.04 58.72,277.78 58.34,276.52 M137.8,226.26 C137.28,226.69 136.75,227.12 136.22,227.55 L131.82,231.06 L129.38,232.93 C129.78,233.41 130.19,233.88 130.59,234.35 C132.18,236.22 133.79,238.07 135.41,239.9 C138.34,237.8 141.24,235.65 144.1,233.45 C142.3,231.43 140.51,229.39 138.73,227.35 C138.43,227 138.12,226.63 137.8,226.26" id="Shape" fill="#F7AFB8"></path>
                    <path d="M203.69,290.59 C203.62,290.64 203.56,290.7 203.49,290.75 L198.43,294.72 C197.66,295.33 196.88,295.91 196.09,296.5 C199,298.73 201.95,300.92 204.92,303.07 L210.09,299.16 C210.82,298.61 211.53,298.04 212.24,297.47 C209.36,295.2 206.51,292.9 203.69,290.59" id="Path" fill="#F7AFB8"></path>
                    <path d="M51.04,84.42 C51.34,85.12 51.63,85.81 51.93,86.51 L52.9,85.9 L53.45,84.72 C52.64,84.61 51.84,84.52 51.04,84.42 M83.53,31.6 C82.9,31.6 82.26,31.82 81.75,32.27 C77.96,35.61 74.3,39.11 70.77,42.76 C67.25,46.41 63.86,50.2 60.63,54.13 C60.22,54.61 59.82,55.13 59.42,55.63 C59.01,56.13 58.62,56.65 58.23,57.16 L57.64,57.93 L57.06,58.71 C56.67,59.23 56.29,59.75 55.92,60.28 C54.42,62.38 52.99,64.53 51.62,66.69 C49.11,70.65 46.8,74.7 44.52,78.62 L42.39,80.31 C41.33,81.17 40.26,82.04 39.2,82.94 C37.08,84.73 35.01,86.64 33.03,88.65 C31.05,90.66 29.17,92.79 27.44,95.04 L26.8,95.89 C26.59,96.17 26.37,96.46 26.17,96.74 C25.76,97.3 25.36,97.87 24.97,98.44 C24.18,99.58 23.42,100.74 22.69,101.91 C16.81,111.29 12.65,121.6 10.29,132.2 C10.07,133.2 10.63,134.23 11.62,134.56 C11.83,134.63 12.05,134.67 12.27,134.67 C13.12,134.67 13.91,134.13 14.19,133.29 L14.19,133.29 C17.51,123.42 22.46,114.2 28.77,106.17 C29.56,105.17 30.36,104.18 31.2,103.22 C31.61,102.73 32.03,102.26 32.46,101.78 C32.67,101.54 32.88,101.31 33.1,101.09 L33.74,100.41 C35.45,98.61 37.28,96.93 39.21,95.34 C40.35,94.4 41.53,93.49 42.73,92.6 C43.54,89.75 44.4,86.93 45.32,84.12 L41.7,84.12 L46.45,80.46 L47.39,75.82 L48.64,78.78 C52.42,75.91 56.28,73.16 60.23,70.52 C62.31,66.52 64.56,62.67 67.08,58.97 C69.82,54.94 72.73,51.02 75.79,47.2 C78.86,43.39 82.08,39.7 85.45,36.13 L85.46,36.12 C86.4,35.12 86.44,33.55 85.51,32.51 C85.01,31.9 84.27,31.6 83.53,31.6" id="Shape" fill="#FBD0D3"></path>
                    <path d="M46.48,80.46 L41.73,84.12 L45.35,84.12 C45.68,83.13 46.01,82.14 46.35,81.15 L46.48,80.46 M60.25,70.52 C56.31,73.16 52.44,75.92 48.66,78.78 L49.59,81 C50.07,82.14 50.55,83.27 51.03,84.41 C51.83,84.51 52.64,84.6 53.44,84.7 L53.44,84.69 C55.58,80.12 57.59,75.67 59.8,71.37 C59.95,71.09 60.1,70.81 60.25,70.52" id="Shape" fill="#F7AFB8"></path>
                    <path d="M48.55,84.13 L45.33,84.13 C44.41,86.94 43.55,89.77 42.74,92.61 C43.57,92 44.4,91.41 45.26,90.83 C46.31,90.11 47.38,89.41 48.46,88.71 L51.79,86.59 L51.92,86.51 C51.62,85.81 51.33,85.12 51.03,84.42 C50.21,84.32 49.38,84.22 48.55,84.13 M47.41,75.82 L46.47,80.46 L47.27,79.84 C47.73,79.49 48.19,79.13 48.65,78.78 L47.41,75.82" id="Shape" fill="#F7AFB8"></path>
                    <path d="M48.66,78.79 C48.2,79.14 47.74,79.49 47.28,79.85 L46.48,80.47 L46.34,81.16 C46,82.15 45.67,83.14 45.34,84.13 L48.56,84.13 C49.39,84.23 50.22,84.32 51.04,84.42 C50.56,83.28 50.08,82.15 49.6,81.01 L48.66,78.79" id="Shape" fill="#F596A5"></path>
                    <path d="M116.35,148.94 C116.35,148.94 116.35,148.94 116.4,149.09 C116.55,149.04 116.6,149.2 116.6,149.2 C116.65,149.35 116.65,149.35 116.69,149.5 C116.58,149.7 116.63,149.85 116.53,150.05 C116.42,150.25 116.32,150.45 116.32,150.45 C116.11,150.85 115.85,151.1 115.59,151.34 C115.08,151.83 114.56,152.33 114.04,152.82 C113.16,153.76 112.08,154.59 111.05,155.58 L104.98,160.79 C100.91,164.38 97.05,168.08 93.18,171.77 C89.36,175.62 85.74,179.57 82.17,183.68 C78.9,187.69 75.88,191.96 73.26,196.44 L79.09,203.99 C81.1,206.71 82.85,209.67 84.14,212.78 C85.58,215.84 86.57,219.04 87.15,222.53 C87.68,225.87 87.71,229.2 87.43,232.63 C87.15,236.05 86.52,239.42 85.49,242.57 C84.66,245.83 83.28,248.93 81.9,252.02 C80.52,255.12 78.74,258 76.41,260.72 C73.88,263.34 70.91,265.08 67.22,265.56 C63.68,265.98 60.21,265.55 56.87,263.91 C55.28,263.07 53.94,261.98 52.71,260.69 C51.48,259.4 50.5,257.87 49.83,256.24 C48.39,253.18 47.35,249.83 46.82,246.49 C46.29,243.15 46.06,239.71 46.04,236.38 C46.09,229.52 47.2,222.84 49.37,216.33 C50.4,213.17 51.58,209.97 53.16,206.98 C54,205.39 54.89,203.94 55.78,202.5 C55.89,202.3 55.99,202.1 56.25,201.86 C56.82,201.02 57.35,200.02 57.88,199.02 C57.39,198.51 56.74,198.04 56.1,197.57 C55.36,196.8 54.47,196.07 53.47,195.54 C51.93,194.34 50.4,193.15 48.71,192 C48.51,191.89 48.31,191.79 48.06,191.53 C47.22,190.96 46.32,190.23 45.48,189.66 C42.7,187.68 39.92,185.7 37.29,183.67 C35.35,182.26 33.72,180.76 32.2,179.07 C30.48,177.27 29.21,175.32 28.09,173.33 C25.92,168.99 24.71,164.53 24.61,159.88 C24.51,155.24 25.12,150.71 26.73,146.21 C28.24,141.91 30.65,137.82 33.76,134.36 C35.41,132.68 37.31,131.26 39.26,129.99 C41.41,128.83 43.44,127.86 45.78,127.31 C46.85,126.98 48.11,126.76 49.43,126.69 C50.84,126.92 52.14,127.36 53.12,128.39 C54.11,129.42 54.79,130.55 55.01,131.81 C55.23,133.08 55.46,134.34 55.33,135.55 C55.23,137.92 54.77,140.23 53.92,142.33 C53.55,143.28 53.17,144.23 52.75,145.03 C52.64,145.23 52.54,145.43 52.43,145.63 C52.33,145.83 52.11,146.23 51.86,146.47 C51.59,147.22 51.12,147.87 50.65,148.51 L49.61,150 L48.67,151.29 C48.2,151.94 47.58,152.63 47.11,153.27 C46.85,153.52 46.59,153.76 46.49,153.96 C45.97,154.45 45.51,155.1 44.99,155.59 C44.73,155.84 44.32,156.13 44.06,156.38 L43.85,156.78 C43.7,156.83 43.7,156.83 43.7,156.83 C43.7,156.83 43.7,156.83 43.55,156.88 C43.6,157.03 43.44,157.08 43.29,157.13 L43.18,157.33 L43.03,157.38 L42.88,157.43 L42.68,157.32 C42.53,157.37 42.38,157.41 42.33,157.26 C42.18,157.31 41.98,157.2 41.78,157.1 C41.69,156.8 41.49,156.69 41.44,156.54 L41.39,156.39 C41.49,156.19 41.49,156.19 41.49,156.19 C41.4,155.89 41.35,155.73 41.45,155.53 C41.46,155.03 41.58,154.32 41.79,153.92 C41.74,153.77 41.74,153.77 41.74,153.77 C42.08,152.16 42.62,150.66 42.96,149.06 C43.12,148.51 43.44,147.91 43.56,147.21 C43.93,146.26 44.11,145.21 44.44,144.1 C44.39,143.95 44.5,143.75 44.45,143.6 C44.56,143.4 44.56,143.4 44.51,143.25 C44.4,143.45 44.15,143.7 43.89,143.94 C43.89,143.94 43.89,143.94 43.74,143.99 C43.12,144.68 42.5,145.37 42.03,146.02 C41.92,146.22 41.77,146.27 41.67,146.47 C40.52,148.16 39.47,150.15 38.72,152.05 C38.02,154.1 37.52,156.26 37.52,158.43 C37.17,160.54 37.32,162.66 37.83,164.84 C38.29,166.87 39.05,168.8 40.17,170.79 C41.34,172.43 42.72,174.18 44.35,175.68 C47.72,178.48 51.24,181.23 54.81,183.63 L60.37,187.59 C62.01,188.59 63.6,189.93 65.13,191.13 C68.75,187.18 72.37,183.22 75.99,179.27 C79.92,175.22 83.89,171.33 88.11,167.69 C92.28,163.9 96.65,160.22 101.16,156.99 C103.47,155.28 105.67,153.76 108.23,152.31 C108.49,152.06 108.95,151.92 109.36,151.63 C109.67,151.54 109.82,151.49 110.08,151.24 C110.69,151.05 111.25,150.71 111.97,150.32 C112.12,150.27 112.43,150.18 112.73,150.08 C113.03,149.99 113.44,149.69 113.9,149.55 C114.66,149.31 115.42,149.08 116.23,149 L116.35,148.94 Z M62.36,216.83 C61.17,220.54 60.33,224.3 59.68,228.17 C59.19,231.99 59.05,235.87 59.37,239.61 C59.48,241.58 59.74,243.5 60,245.43 C60.19,246.04 60.27,246.85 60.51,247.61 C60.56,247.76 60.6,247.92 60.7,248.22 C60.78,249.03 61.22,249.9 61.6,250.61 C61.88,251.52 62.42,252.19 62.96,252.86 C63.25,253.27 63.5,253.53 63.75,253.79 C64,254.05 64.35,254.11 64.55,254.21 C64.75,254.31 64.75,254.31 64.9,254.27 C64.9,254.27 65.05,254.22 65.21,254.18 C65.51,254.09 65.92,253.79 66.18,253.55 C67,252.96 67.67,252.42 68.14,251.78 C68.76,251.09 69.33,250.24 69.76,249.45 C69.87,249.25 70.12,249 70.18,248.65 C70.5,248.05 70.81,247.45 70.98,246.9 C71.78,245.15 72.57,243.41 73.17,241.55 C73.77,239.7 74.21,237.89 74.46,235.98 C74.86,234.02 74.95,232.16 74.99,230.14 C74.91,229.33 74.87,228.67 74.94,227.82 C74.92,226.66 74.74,225.55 74.71,224.39 C74.65,222.57 74.48,220.95 74.12,219.23 C74.07,219.08 74.07,219.08 74.07,219.08 L73.98,218.78 L72.44,215.42 C71.91,214.25 71.23,213.12 70.75,212.1 C69.63,210.11 68.26,208.36 66.68,207.01 C64.78,210.08 63.3,213.37 62.36,216.83 Z" id="Shape" fill="#221F1F"></path>
                    <path d="M215.89,119.41 C216.66,118.67 217.33,118.13 217.79,117.99 C218.35,117.65 218.66,117.55 218.7,117.71 C220.49,118.66 219.2,124.73 214.55,136.18 C209.9,147.63 206.02,161.01 202.75,176.37 C202.39,178.99 202.73,181.72 203.53,184.31 C204.38,187.05 205.48,189.55 206.58,192.05 C207.06,193.07 207.5,193.94 207.83,195 C216.99,216.04 224.67,237.7 230.99,259.79 C235.54,275.08 237.46,290.5 237,306.33 C235.69,322.09 230.13,331.14 220.09,333.74 C208.65,335.6 199.04,329.88 191.18,316.29 C184.35,301.71 180.85,286.6 180.91,270.56 C179.89,248.85 181.82,225.89 186.69,202.19 C188.12,194.91 189.47,188.48 191.06,182.82 C188.04,175.74 184.6,169.46 180.65,163.67 C180.02,162.7 179.58,161.83 178.95,160.86 C174.76,154.31 170.01,148.1 164.69,142.23 C161.59,138.68 159.06,136.96 156.83,137.31 C154.65,137.82 152.38,140.19 149.86,144.47 C149.33,145.47 148.91,146.26 148.54,147.21 C148.27,147.96 147.85,148.76 147.53,149.36 C142.68,158.53 138.28,163.73 134.21,165.15 C130.14,166.57 125.53,165.16 120.38,160.9 C113.25,152.92 111.18,144.05 114.32,134.23 C116.35,129.43 119.51,125.62 123.5,122.89 C127.65,120.11 131.67,118.53 135.31,117.91 C139.16,117.39 141.67,117.95 142.84,119.59 C143.13,120 142.92,120.4 142.1,120.99 C141.39,121.38 140.26,122.06 138.98,122.79 C136.48,123.89 134.08,125.3 131.51,127.26 C128.74,129.11 126.98,131.5 125.9,134.5 C125.09,136.75 124.88,139.32 125.23,142.05 C125.47,144.98 127.26,148.1 130.27,151.34 C131.67,152.08 132.83,152.05 133.95,151.37 C135.03,150.54 136.01,149.4 137.05,147.91 C137.89,146.31 138.78,144.87 139.52,143.48 C139.68,142.93 140,142.33 140.21,141.93 C144.95,132.96 150,128.23 155.31,127.59 C160.52,127.15 166.16,129.75 172.38,135.84 C175.69,138.99 178.79,142.54 181.47,146.39 C182.01,147.06 182.35,147.62 182.84,148.14 C185.14,151.27 187.52,155.21 190.09,159.75 C192.66,164.3 194.74,168.33 196.28,171.69 C197.75,164.56 200.27,155.94 204.02,145.94 C207.73,135.78 210.98,127.94 213.84,122.05 C214.34,120.89 215.07,120 215.89,119.41 Z M216.32,252.29 C210.59,233.7 204.37,216.26 197.88,200.07 C197.54,199.51 197.35,198.9 197.16,198.29 C192.95,214.94 190.22,233.14 188.81,252.93 C187.41,272.72 189.42,290.62 194.8,306.99 C196.27,311.21 198.9,315.41 202.79,319.38 C206.58,323.55 210.98,325.37 216.14,324.78 C220.04,323.91 222.52,321.64 223.4,318.03 C224.29,314.42 224.83,310.75 224.76,306.76 C224.72,306.1 224.74,305.6 224.7,304.94 C224.94,288.35 222.16,270.68 216.32,252.29 Z" id="Shape" fill="#221F1F"></path>
                    <path d="M318.35,99.19 C318.35,99.19 326.32,88.8 324.48,74.53 C324.22,72.53 322.06,66.63 320.79,65.41 C320.47,65.1 320.6,64.91 320.18,64.16 C320.16,64.13 320.12,64.05 320.14,63.97 C320.2,63.77 320.64,63.71 320.84,63.72 C321.45,63.73 322.01,64.17 322.22,64.45 C322.97,65.47 323.9,66.72 324.29,67.56 C331.26,82.54 322.83,98.54 321.35,101.02 C321.15,101.37 321.01,101.66 320.91,101.83 C320.91,101.83 320.83,101.97 320.75,102.11 C316.88,108.72 310.42,112.32 310.42,112.32 C303.85,115.98 297.55,115.79 295.12,115.59 C291.64,115.17 288.93,114.36 287.12,113.7 C287.12,113.7 279.81,111.42 271.2,103.51 C269.88,102.3 268.51,101.15 267.25,99.89 C265.08,97.72 262.8,95.76 260.57,93.94 C256.36,90.57 253.16,89.38 250.87,90.09 C248.58,90.8 246.65,93.73 244.72,98.83 C242.36,105.23 241.05,111.81 240.49,118.66 C240.19,120.92 239.88,123.19 239.58,125.45 C239.36,126.35 239.33,127.36 239.11,128.26 C239,131.13 238.33,133.84 237.26,136.34 C236.19,138.84 233.84,140.4 230.24,141.18 C226.24,141.75 223.13,140.87 221.12,138.65 C219.1,136.43 217.45,133.77 216.15,130.67 C215.76,129.96 215.38,129.24 214.99,128.52 C212.68,123.73 210.41,119.08 208.25,114.24 C206.86,110.83 205.13,107.36 203.54,103.84 C203.54,103.84 203.49,103.69 203.45,103.53 C201.81,100.37 200.41,97.46 199.5,95.07 C199.36,94.61 199.32,93.96 199.45,92.75 C199.47,91.74 199.85,90.79 200.37,89.79 C201,88.59 201.82,88.01 202.84,87.53 C205.63,86.84 207.79,87.34 209.3,89.54 C210.92,91.54 212.32,94.45 213.75,98.01 C214.28,99.18 214.85,100.51 215.43,101.83 C215.96,103 216.58,104.48 217.25,106.11 C218.39,109.26 219.63,112.22 221.09,114.77 C222.39,117.37 223.88,118.41 225.36,117.79 C226.43,117.46 227.41,116.32 228.07,114.12 C228.72,111.91 229.48,109.51 229.95,106.7 C230.51,104.19 231.17,101.99 231.72,99.98 C239.07,80.52 251.21,76.61 268.2,88.39 C272.52,91.56 276.78,95.09 280.62,98.91 C280.64,98.93 282.59,100.77 282.62,100.79 C284.31,102.38 284.58,102.64 284.62,102.68 C286.31,104.26 290.97,106.96 293.57,107.82 C299.98,109.94 311.54,106.99 318.35,99.19 Z" id="Path" fill="#221F1F"></path>
                    <path d="M313.28,307.43 C300.98,320.6 286.61,331.9 270.83,340.81 C255.06,349.73 237.87,356.23 220.07,360 C211.17,361.89 202.12,363.08 193.02,363.61 C183.92,364.14 174.78,363.98 165.69,363.14 C147.51,361.48 129.55,357 112.66,349.93 C95.77,342.85 79.93,333.21 65.9,321.39 C58.88,315.49 52.29,309.06 46.22,302.17 C40.15,295.28 34.61,287.92 29.64,280.19 C19.69,264.73 12.11,247.73 7.24,229.98 C2.35,212.23 0.25,193.72 0.86,175.33 C1.01,170.73 1.33,166.13 1.83,161.55 C2.33,156.97 3.01,152.41 3.85,147.88 C4.69,143.35 5.73,138.86 6.92,134.41 C8.12,129.96 9.48,125.56 11.02,121.22 C17.15,103.85 26.04,87.47 37.15,72.84 C48.25,58.2 61.6,45.31 76.52,34.72 C83.97,29.42 91.82,24.68 99.97,20.57 C108.12,16.46 116.57,12.96 125.22,10.11 C126.3,9.75 127.39,9.41 128.47,9.07 C129.56,8.74 130.65,8.41 131.74,8.1 C133.93,7.47 136.12,6.88 138.33,6.33 C140.54,5.78 142.75,5.27 144.98,4.81 C147.21,4.35 149.44,3.92 151.68,3.54 C153.92,3.16 156.16,2.81 158.42,2.52 C160.67,2.23 162.93,1.96 165.19,1.76 C167.45,1.55 169.71,1.37 171.98,1.24 C174.24,1.11 176.51,1.02 178.78,0.97 C187.85,0.79 196.89,1.25 205.88,2.29 C214.86,3.32 223.77,4.98 232.52,7.22 C241.27,9.47 249.85,12.35 258.18,15.82 C266.5,19.31 274.56,23.43 282.23,28.18 C284.15,29.37 286.03,30.6 287.9,31.87 C289.76,33.15 291.6,34.45 293.4,35.8 C295.2,37.15 296.99,38.53 298.73,39.96 C300.47,41.39 302.19,42.85 303.86,44.36 C310.56,50.38 316.7,57.03 322.12,64.22 C322.41,64.61 322.34,65.16 321.95,65.46 C321.56,65.75 321.02,65.68 320.72,65.3 C315.26,58.29 309.09,51.86 302.38,46.05 C295.67,40.25 288.43,35.07 280.8,30.55 C273.17,26.03 265.18,22.15 256.94,18.89 C248.7,15.64 240.21,13.03 231.6,11.01 C222.98,9.01 214.23,7.58 205.42,6.77 C201.02,6.35 196.6,6.11 192.19,5.98 C189.98,5.93 187.77,5.89 185.56,5.92 C184.46,5.92 183.35,5.95 182.25,5.97 C181.15,6.01 180.05,6.03 178.95,6.08 C161.33,6.81 143.87,10.26 127.36,16.24 C110.85,22.22 95.32,30.74 81.42,41.33 C67.52,51.92 55.23,64.55 45.05,78.65 C34.86,92.75 26.77,108.32 21.12,124.71 C15.45,141.1 12.25,158.33 11.59,175.67 C11.26,184.34 11.57,193.04 12.53,201.66 C12.77,203.82 13.05,205.97 13.37,208.11 C13.7,210.25 14.05,212.39 14.45,214.53 C14.85,216.66 15.29,218.79 15.76,220.9 C16.24,223.02 16.76,225.12 17.31,227.22 C21.77,244 28.81,260.08 38.05,274.81 C42.67,282.17 47.85,289.19 53.53,295.78 C59.2,302.38 65.36,308.56 71.95,314.26 C85.13,325.64 100.03,335.08 116.02,342.08 C124.01,345.59 132.27,348.51 140.71,350.78 C142.82,351.34 144.94,351.88 147.07,352.36 C149.2,352.84 151.34,353.29 153.49,353.71 C155.64,354.12 157.79,354.49 159.96,354.82 C162.12,355.14 164.29,355.44 166.47,355.69 C183.87,357.66 201.6,357.09 218.88,353.9 C236.16,350.72 252.99,344.91 268.63,336.72 C284.28,328.54 298.72,317.99 311.4,305.56 C311.92,305.05 312.76,305.06 313.27,305.58 C313.75,306.11 313.76,306.92 313.28,307.43 Z" id="Path" fill="url(#linearGradient-1)"></path>
                </g>
                <g id="Group" transform="translate(279.000000, 161.000000)" fill="#221F1F">
                    <path d="M27.82,8.81 C26.66,7.5 25.12,6.44 23.2,5.63 C21.27,4.82 19.08,4.42 16.61,4.42 C12.99,4.42 10.35,5.11 8.69,6.47 C7.03,7.84 6.2,9.7 6.2,12.05 C6.2,13.28 6.42,14.3 6.87,15.09 C7.31,15.88 8,16.56 8.92,17.14 C9.85,17.72 11.03,18.22 12.48,18.64 C13.93,19.06 15.63,19.49 17.6,19.91 C19.8,20.37 21.77,20.89 23.52,21.47 C25.27,22.05 26.77,22.77 28,23.64 C29.23,24.51 30.18,25.56 30.83,26.79 C31.48,28.02 31.81,29.56 31.81,31.41 C31.81,33.3 31.44,34.94 30.71,36.32 C29.98,37.71 28.96,38.86 27.65,39.79 C26.34,40.71 24.78,41.4 22.97,41.84 C21.16,42.28 19.17,42.5 17.02,42.5 C10.66,42.5 5.17,40.52 0.54,36.55 L2.56,33.26 C3.29,34.03 4.17,34.76 5.19,35.46 C6.21,36.15 7.35,36.76 8.6,37.28 C9.85,37.8 11.19,38.2 12.62,38.49 C14.05,38.78 15.55,38.92 17.13,38.92 C20.41,38.92 22.96,38.33 24.79,37.16 C26.62,35.98 27.54,34.2 27.54,31.81 C27.54,30.54 27.28,29.47 26.76,28.6 C26.24,27.73 25.46,26.98 24.42,26.35 C23.38,25.72 22.09,25.16 20.55,24.7 C19.01,24.24 17.22,23.78 15.17,23.31 C13.01,22.81 11.12,22.29 9.5,21.75 C7.88,21.21 6.51,20.54 5.4,19.73 C4.28,18.92 3.44,17.95 2.89,16.81 C2.33,15.67 2.05,14.28 2.05,12.62 C2.05,10.73 2.41,9.05 3.12,7.56 C3.83,6.08 4.84,4.84 6.15,3.86 C7.46,2.88 9,2.13 10.77,1.61 C12.54,1.09 14.51,0.83 16.67,0.83 C19.41,0.83 21.84,1.24 23.98,2.07 C26.12,2.9 28.06,4.06 29.79,5.57 L27.82,8.81 Z" id="Path"></path>
                    <polygon id="Path" points="45.85 42.16 45.85 1.12 49.9 1.12 49.9 42.16"></polygon>
                    <polygon id="Path" points="71.17 8.64 71.17 42.17 67.12 42.17 67.12 1.13 70.24 1.13 97.41 35.29 97.41 1.18 101.46 1.18 101.46 42.16 97.93 42.16"></polygon>
                    <path d="M148.34,36.15 C144.53,40.35 140.13,42.45 135.16,42.45 C132.39,42.45 129.83,41.85 127.5,40.66 C125.17,39.47 123.14,37.89 121.43,35.92 C119.72,33.95 118.38,31.73 117.41,29.24 C116.45,26.75 115.96,24.2 115.96,21.58 C115.96,18.84 116.43,16.22 117.38,13.72 C118.32,11.22 119.64,9.01 121.34,7.1 C123.04,5.19 125.04,3.67 127.35,2.53 C129.66,1.39 132.19,0.82 134.92,0.82 C136.92,0.82 138.75,1.04 140.41,1.49 C142.07,1.93 143.54,2.55 144.83,3.34 C146.12,4.13 147.24,5.07 148.18,6.17 C149.12,7.27 149.92,8.47 150.58,9.78 L147.46,11.86 C146.11,9.32 144.36,7.45 142.2,6.25 C140.04,5.06 137.59,4.46 134.86,4.46 C132.59,4.46 130.53,4.94 128.7,5.9 C126.87,6.86 125.31,8.15 124.02,9.74 C122.73,11.34 121.74,13.17 121.04,15.23 C120.35,17.29 120,19.42 120,21.62 C120,23.93 120.39,26.13 121.18,28.21 C121.97,30.29 123.06,32.11 124.45,33.67 C125.84,35.23 127.46,36.47 129.33,37.4 C131.2,38.33 133.23,38.79 135.43,38.79 C137.78,38.79 140.03,38.24 142.16,37.14 C144.3,36.04 146.35,34.3 148.32,31.91 L148.32,25.09 L139.19,25.09 L139.19,21.97 L151.73,21.97 L151.73,42.14 L148.32,42.14 L148.32,36.15 L148.34,36.15 Z" id="Path"></path>
                    <path d="M179.73,1.12 L183.14,1.12 L200.19,42.16 L195.91,42.16 L190.59,29.33 L172.15,29.33 L166.89,42.16 L162.55,42.16 L179.73,1.12 Z M189.67,26.15 L181.4,5.86 L173.02,26.15 L189.67,26.15 Z" id="Shape"></path>
                    <path d="M213.02,42.16 L213.02,1.12 L230.02,1.12 C231.79,1.12 233.42,1.5 234.9,2.25 C236.38,3 237.66,3.98 238.74,5.2 C239.82,6.41 240.67,7.79 241.28,9.33 C241.9,10.87 242.2,12.43 242.2,14.01 C242.2,15.71 241.91,17.33 241.33,18.89 C240.75,20.45 239.94,21.83 238.9,23.02 C237.86,24.21 236.62,25.18 235.17,25.91 C233.72,26.64 232.12,27.01 230.34,27.01 L217.05,27.01 L217.05,42.16 L213.02,42.16 L213.02,42.16 Z M217.07,23.44 L230.19,23.44 C231.38,23.44 232.47,23.18 233.46,22.66 C234.44,22.14 235.28,21.45 235.97,20.58 C236.66,19.71 237.2,18.71 237.59,17.57 C237.97,16.43 238.17,15.25 238.17,14.02 C238.17,12.75 237.95,11.54 237.51,10.41 C237.07,9.27 236.47,8.28 235.72,7.43 C234.97,6.58 234.08,5.92 233.06,5.44 C232.04,4.96 230.97,4.72 229.85,4.72 L217.07,4.72 L217.07,23.44 L217.07,23.44 Z" id="Shape"></path>
                    <path d="M272.45,42.45 C269.6,42.45 266.99,41.86 264.62,40.69 C262.25,39.52 260.22,37.95 258.52,36.01 C256.82,34.06 255.51,31.84 254.59,29.33 C253.67,26.83 253.2,24.26 253.2,21.64 C253.2,18.9 253.69,16.28 254.67,13.78 C255.65,11.28 257.01,9.06 258.75,7.13 C260.48,5.2 262.53,3.67 264.88,2.53 C267.23,1.39 269.77,0.82 272.51,0.82 C275.36,0.82 277.97,1.43 280.34,2.64 C282.71,3.85 284.73,5.44 286.41,7.41 C288.09,9.38 289.39,11.6 290.31,14.09 C291.23,16.58 291.7,19.11 291.7,21.69 C291.7,24.43 291.21,27.05 290.23,29.55 C289.25,32.06 287.9,34.26 286.18,36.17 C284.47,38.08 282.43,39.6 280.08,40.74 C277.73,41.88 275.18,42.45 272.45,42.45 Z M257.24,21.64 C257.24,23.88 257.61,26.02 258.34,28.09 C259.07,30.15 260.11,31.98 261.46,33.58 C262.81,35.18 264.41,36.45 266.26,37.39 C268.11,38.33 270.17,38.81 272.45,38.81 C274.76,38.81 276.86,38.31 278.75,37.31 C280.64,36.31 282.24,35 283.55,33.38 C284.86,31.76 285.87,29.93 286.58,27.89 C287.29,25.85 287.65,23.77 287.65,21.65 C287.65,19.42 287.27,17.27 286.52,15.2 C285.77,13.14 284.72,11.32 283.37,9.74 C282.02,8.16 280.42,6.9 278.57,5.95 C276.72,5.01 274.68,4.53 272.44,4.53 C270.13,4.53 268.03,5.02 266.14,6 C264.25,6.98 262.65,8.28 261.34,9.9 C260.03,11.52 259.02,13.35 258.31,15.39 C257.6,17.44 257.24,19.52 257.24,21.64 Z" id="Shape"></path>
                    <path d="M306.26,42.16 L306.26,1.12 L323.6,1.12 C325.37,1.12 327,1.5 328.48,2.25 C329.96,3 331.24,3.98 332.32,5.2 C333.4,6.41 334.24,7.79 334.83,9.33 C335.43,10.87 335.73,12.43 335.73,14.01 C335.73,15.51 335.51,16.95 335.06,18.32 C334.62,19.69 334,20.92 333.21,22.02 C332.42,23.12 331.47,24.04 330.35,24.79 C329.23,25.54 327.98,26.05 326.59,26.32 L336.65,42.16 L332.08,42.16 L322.43,27.01 L310.29,27.01 L310.29,42.16 L306.26,42.16 Z M310.31,23.44 L323.72,23.44 C324.91,23.44 326,23.18 326.99,22.66 C327.97,22.14 328.81,21.44 329.5,20.55 C330.19,19.66 330.73,18.66 331.12,17.54 C331.5,16.42 331.7,15.25 331.7,14.01 C331.7,12.78 331.48,11.59 331.04,10.45 C330.6,9.31 330,8.32 329.25,7.47 C328.5,6.62 327.61,5.95 326.59,5.45 C325.57,4.95 324.5,4.7 323.38,4.7 L310.32,4.7 L310.32,23.44 L310.31,23.44 Z" id="Shape"></path>
                    <polygon id="Path" points="378.52 38.58 378.52 42.16 350.95 42.16 350.95 1.12 378 1.12 378 4.7 354.99 4.7 354.99 19.5 375.05 19.5 375.05 22.91 354.99 22.91 354.99 38.58 378.52 38.58"></polygon>
                    <path d="M33.48,103.76 C29.66,107.96 25.27,110.06 20.3,110.06 C17.53,110.06 14.97,109.46 12.64,108.27 C10.31,107.08 8.29,105.5 6.57,103.53 C4.85,101.56 3.52,99.34 2.55,96.85 C1.59,94.36 1.1,91.81 1.1,89.19 C1.1,86.45 1.57,83.83 2.52,81.33 C3.46,78.83 4.78,76.62 6.48,74.71 C8.18,72.8 10.18,71.28 12.49,70.14 C14.8,69 17.33,68.43 20.06,68.43 C22.06,68.43 23.89,68.65 25.55,69.1 C27.21,69.54 28.68,70.16 29.97,70.95 C31.26,71.74 32.38,72.68 33.32,73.78 C34.26,74.88 35.06,76.08 35.72,77.39 L32.6,79.47 C31.25,76.93 29.5,75.06 27.34,73.86 C25.18,72.67 22.73,72.07 20,72.07 C17.73,72.07 15.67,72.55 13.84,73.51 C12.01,74.47 10.45,75.76 9.16,77.35 C7.87,78.95 6.88,80.78 6.18,82.84 C5.49,84.9 5.14,87.03 5.14,89.23 C5.14,91.54 5.54,93.74 6.33,95.82 C7.12,97.9 8.21,99.72 9.6,101.28 C10.99,102.84 12.62,104.08 14.48,105.01 C16.35,105.93 18.38,106.4 20.58,106.4 C22.93,106.4 25.18,105.85 27.31,104.75 C29.45,103.65 31.5,101.91 33.47,99.52 L33.47,92.7 L24.34,92.7 L24.34,89.58 L36.88,89.58 L36.88,109.75 L33.47,109.75 L33.47,103.76 L33.48,103.76 Z" id="Path"></path>
                    <polygon id="Path" points="49.84 109.77 49.84 68.73 53.89 68.73 53.89 106.19 77.59 106.19 77.59 109.77"></polygon>
                    <path d="M102.1,110.06 C99.25,110.06 96.64,109.47 94.27,108.3 C91.9,107.13 89.87,105.56 88.17,103.62 C86.47,101.67 85.16,99.45 84.24,96.94 C83.31,94.44 82.85,91.87 82.85,89.25 C82.85,86.51 83.34,83.89 84.32,81.39 C85.3,78.89 86.66,76.67 88.4,74.74 C90.13,72.81 92.18,71.28 94.53,70.14 C96.88,69 99.42,68.43 102.16,68.43 C105.01,68.43 107.62,69.04 109.99,70.25 C112.36,71.46 114.38,73.05 116.06,75.02 C117.74,76.99 119.04,79.21 119.96,81.7 C120.88,84.19 121.35,86.72 121.35,89.3 C121.35,92.04 120.86,94.66 119.88,97.16 C118.9,99.67 117.55,101.87 115.83,103.78 C114.12,105.69 112.08,107.21 109.73,108.35 C107.38,109.49 104.83,110.06 102.1,110.06 Z M86.89,89.25 C86.89,91.49 87.26,93.63 87.99,95.7 C88.72,97.76 89.76,99.59 91.11,101.19 C92.46,102.79 94.06,104.06 95.91,105 C97.76,105.94 99.82,106.42 102.1,106.42 C104.41,106.42 106.51,105.92 108.4,104.92 C110.29,103.92 111.89,102.61 113.2,100.99 C114.51,99.37 115.52,97.54 116.23,95.5 C116.94,93.46 117.3,91.38 117.3,89.26 C117.3,87.03 116.92,84.88 116.17,82.81 C115.42,80.75 114.37,78.93 113.02,77.35 C111.67,75.77 110.07,74.51 108.22,73.56 C106.37,72.62 104.33,72.14 102.09,72.14 C99.78,72.14 97.68,72.63 95.79,73.61 C93.9,74.59 92.3,75.89 90.99,77.51 C89.68,79.13 88.67,80.96 87.95,83 C87.25,85.05 86.89,87.13 86.89,89.25 Z" id="Shape"></path>
                    <path d="M164.47,99.19 C164.47,100.73 164.16,102.15 163.54,103.44 C162.92,104.73 162.1,105.85 161.05,106.79 C160.01,107.73 158.8,108.47 157.41,108.99 C156.02,109.51 154.54,109.77 152.96,109.77 L133.6,109.77 L133.6,68.73 L153.37,68.73 C154.8,68.73 156.09,69.04 157.24,69.65 C158.4,70.27 159.38,71.07 160.19,72.05 C161,73.03 161.63,74.15 162.07,75.4 C162.51,76.65 162.74,77.91 162.74,79.19 C162.74,81.27 162.22,83.17 161.18,84.88 C160.14,86.6 158.69,87.88 156.85,88.72 C159.2,89.41 161.06,90.71 162.43,92.59 C163.78,94.49 164.47,96.69 164.47,99.19 Z M137.65,72.25 L137.65,87.4 L151.75,87.4 C152.75,87.4 153.69,87.19 154.55,86.76 C155.42,86.34 156.16,85.78 156.78,85.08 C157.4,84.39 157.88,83.59 158.23,82.68 C158.58,81.77 158.75,80.82 158.75,79.82 C158.75,78.78 158.59,77.8 158.26,76.87 C157.93,75.95 157.47,75.15 156.87,74.47 C156.27,73.8 155.57,73.26 154.76,72.85 C153.95,72.44 153.06,72.24 152.1,72.24 L137.65,72.24 L137.65,72.25 Z M160.42,98.5 C160.42,97.5 160.25,96.53 159.9,95.58 C159.55,94.64 159.06,93.81 158.43,93.09 C157.79,92.38 157.04,91.8 156.18,91.36 C155.31,90.92 154.38,90.69 153.38,90.69 L137.66,90.69 L137.66,106.24 L152.98,106.24 C154.02,106.24 154.99,106.03 155.9,105.6 C156.81,105.18 157.6,104.61 158.27,103.89 C158.94,103.18 159.47,102.35 159.86,101.4 C160.23,100.47 160.42,99.5 160.42,98.5 Z" id="Shape"></path>
                    <path d="M188.57,68.73 L191.98,68.73 L209.03,109.77 L204.75,109.77 L199.43,96.94 L181,96.94 L175.74,109.77 L171.4,109.77 L188.57,68.73 Z M198.52,93.76 L190.25,73.47 L181.87,93.76 L198.52,93.76 Z" id="Shape"></path>
                    <polygon id="Path" points="219.56 109.77 219.56 68.73 223.61 68.73 223.61 106.19 247.31 106.19 247.31 109.77"></polygon>
                    <polygon id="Path" points="279.73 76.24 279.73 109.77 275.68 109.77 275.68 68.73 278.8 68.73 305.97 102.89 305.97 68.78 310.02 68.78 310.02 109.76 306.49 109.76"></polygon>
                    <polygon id="Path" points="352.51 106.18 352.51 109.76 324.94 109.76 324.94 68.72 351.99 68.72 351.99 72.3 328.98 72.3 328.98 87.1 349.04 87.1 349.04 90.51 328.98 90.51 328.98 106.18 352.51 106.18"></polygon>
                    <polygon id="Path" points="393.9 72.31 379.27 72.31 379.27 109.77 375.22 109.77 375.22 72.31 360.6 72.31 360.6 68.73 393.9 68.73"></polygon>
                    <polygon id="Path" points="420.08 69.01 423.9 69.01 429.68 83.58 435.52 69.01 439.39 69.01 432.22 86.53 440.08 105.09 454.94 68.73 459.33 68.73 441.93 109.77 438.35 109.77 429.74 89.48 421.07 109.77 417.54 109.77 400.2 68.73 404.54 68.73 419.45 105.09 427.25 86.53"></polygon>
                    <path d="M484.77,110.06 C481.92,110.06 479.31,109.47 476.94,108.3 C474.57,107.13 472.54,105.56 470.84,103.62 C469.14,101.67 467.83,99.45 466.91,96.94 C465.99,94.44 465.52,91.87 465.52,89.25 C465.52,86.51 466.01,83.89 466.99,81.39 C467.97,78.89 469.33,76.67 471.07,74.74 C472.8,72.81 474.85,71.28 477.2,70.14 C479.55,69 482.09,68.43 484.83,68.43 C487.68,68.43 490.29,69.04 492.66,70.25 C495.03,71.46 497.05,73.05 498.73,75.02 C500.41,76.99 501.71,79.21 502.63,81.7 C503.55,84.19 504.02,86.72 504.02,89.3 C504.02,92.04 503.53,94.66 502.55,97.16 C501.57,99.67 500.22,101.87 498.5,103.78 C496.79,105.69 494.75,107.21 492.4,108.35 C490.05,109.49 487.5,110.06 484.77,110.06 Z M469.57,89.25 C469.57,91.49 469.94,93.63 470.67,95.7 C471.4,97.76 472.44,99.59 473.79,101.19 C475.14,102.79 476.74,104.06 478.59,105 C480.44,105.94 482.5,106.42 484.78,106.42 C487.09,106.42 489.19,105.92 491.08,104.92 C492.97,103.92 494.57,102.61 495.88,100.99 C497.19,99.37 498.2,97.54 498.91,95.5 C499.62,93.46 499.98,91.38 499.98,89.26 C499.98,87.03 499.6,84.88 498.85,82.81 C498.1,80.75 497.05,78.93 495.7,77.35 C494.35,75.77 492.75,74.51 490.9,73.56 C489.05,72.62 487.01,72.14 484.77,72.14 C482.46,72.14 480.36,72.63 478.47,73.61 C476.58,74.59 474.98,75.89 473.67,77.51 C472.36,79.13 471.35,80.96 470.64,83 C469.92,85.05 469.57,87.13 469.57,89.25 Z" id="Shape"></path>
                    <path d="M516.27,109.77 L516.27,68.73 L533.61,68.73 C535.38,68.73 537.01,69.11 538.49,69.86 C539.97,70.61 541.25,71.59 542.33,72.81 C543.41,74.02 544.25,75.4 544.84,76.94 C545.44,78.48 545.74,80.04 545.74,81.62 C545.74,83.12 545.52,84.56 545.07,85.93 C544.63,87.3 544.01,88.53 543.22,89.63 C542.43,90.73 541.48,91.65 540.36,92.4 C539.24,93.15 537.99,93.66 536.6,93.93 L546.66,109.77 L542.09,109.77 L532.44,94.62 L520.3,94.62 L520.3,109.77 L516.27,109.77 L516.27,109.77 Z M520.32,91.04 L533.73,91.04 C534.92,91.04 536.01,90.78 537,90.26 C537.98,89.74 538.82,89.04 539.51,88.15 C540.2,87.26 540.74,86.26 541.13,85.14 C541.51,84.02 541.71,82.85 541.71,81.61 C541.71,80.38 541.49,79.19 541.05,78.05 C540.61,76.91 540.01,75.92 539.26,75.07 C538.51,74.22 537.62,73.55 536.6,73.05 C535.58,72.55 534.51,72.3 533.39,72.3 L520.33,72.3 L520.33,91.04 L520.32,91.04 Z" id="Shape"></path>
                    <polygon id="Path" points="558.64 109.77 558.64 68.79 562.69 68.79 562.69 92.61 585.29 68.74 589.74 68.74 572.98 86.78 590.61 109.79 586.16 109.79 570.44 89.15 562.69 97.19 562.69 109.79 558.64 109.79"></polygon>
                </g>
            </g>
        </g>
    </g>
</svg>