<svg id="Layer_1" data-name="Layer 1" xmlns="http://www.w3.org/2000/svg" viewBox="0 0 1064.85 600"><defs><style>.cls-1{fill:#f5333f;}.cls-2{fill:#fff;}</style></defs><title>SGN_LOGO_28JAN_FINAL_VARIATIONS_PATHED</title><path class="cls-1" d="M493.78,333.26c-9.1,0-15-2.29-20.74-8l4.42-4.42c5,5,9.69,6.63,16.49,6.63,8.84,0,14.28-4.16,14.28-11.22,0-3.14-.94-5.86-2.89-7.56s-3.49-2.21-7.91-2.89l-7.05-1.11c-4.76-.77-8.5-2.29-11.14-4.59-3.06-2.72-4.59-6.46-4.59-11.31,0-10.28,7.4-17.08,19.38-17.08,7.74,0,12.84,1.95,18,6.63l-4.16,4.16c-3.74-3.4-7.74-5.18-14.11-5.18-8.08,0-12.75,4.5-12.75,11.22,0,3,.85,5.36,2.72,7a17.44,17.44,0,0,0,8.16,3.32l6.63,1c5.69.85,8.5,2,11,4.25,3.31,2.81,5.1,7,5.1,12C514.69,326.72,506.36,333.26,493.78,333.26Z"/><path class="cls-1" d="M526.56,332.75V272.23H533v60.52Z"/><path class="cls-1" d="M586.52,332.75l-32.13-48.54v48.54h-6.46V272.23h6.12l32.13,48.37V272.23h6.46v60.52Z"/><path class="cls-1" d="M643.33,326.29a22.18,22.18,0,0,1-31.62.68c-5.7-5.69-5.7-11.64-5.7-24.48s0-18.79,5.7-24.48a21.42,21.42,0,0,1,15.47-6.29c11.56,0,19.38,7.48,21.16,18.1h-6.46c-1.7-7.65-7.14-12.32-14.7-12.32a14.65,14.65,0,0,0-10.46,4.33c-3.83,3.91-4.25,8-4.25,20.66s.42,16.83,4.25,20.74a14.58,14.58,0,0,0,10.46,4.25,14.73,14.73,0,0,0,11.47-5.18c2.47-3,3.4-6.29,3.4-11v-4.59H627.18v-5.69h21.33v9.6C648.51,317.62,647.07,322.3,643.33,326.29Z"/><path class="cls-1" d="M697.67,332.75l-4.85-13.68H666.38l-4.84,13.68h-6.89l22.28-60.52h5.44l22.18,60.52Zm-17.94-51.26-11.39,32H691Z"/><path class="cls-1" d="M737.32,307.84H721.25v24.91h-6.46V272.23h22.53c11,0,18.7,6.88,18.7,17.76S748.37,307.84,737.32,307.84Zm-.6-29.83H721.25v24.06h15.47c7.57,0,12.84-4.08,12.84-12.08S744.29,278,736.72,278Z"/><path class="cls-1" d="M802.92,327A22.17,22.17,0,0,1,772,327c-5.7-5.69-5.7-11.64-5.7-24.48s0-18.79,5.7-24.48a22.17,22.17,0,0,1,30.94,0c5.7,5.69,5.7,11.64,5.7,24.48S808.62,321.28,802.92,327Zm-5-45.14a14.8,14.8,0,0,0-20.92,0c-3.82,3.91-4.25,8-4.25,20.66s.43,16.75,4.25,20.66a14.8,14.8,0,0,0,20.92,0c3.82-3.91,4.25-8,4.25-20.66S801.73,285.74,797.91,281.83Z"/><path class="cls-1" d="M856.75,332.75,843,305.89H828.44v26.86H822V272.23h23.21c10.54,0,17.94,6.37,17.94,16.83,0,8.84-5.36,14.62-13.18,16.24l14.37,27.45ZM844.59,278H828.44v22.18h16.15c7.06,0,12.08-3.65,12.08-11.05S851.65,278,844.59,278Z"/><path class="cls-1" d="M876.2,332.75V272.23h37.58V278H882.66v21.33h26.53v5.79H882.66V327h31.12v5.78Z"/><path class="cls-1" d="M513.24,406.29a22.18,22.18,0,0,1-31.62.68c-5.69-5.69-5.69-11.64-5.69-24.48s0-18.79,5.69-24.48a21.44,21.44,0,0,1,15.47-6.29c11.56,0,19.38,7.48,21.17,18.1H511.8c-1.7-7.65-7.14-12.32-14.71-12.32a14.63,14.63,0,0,0-10.45,4.33c-3.83,3.91-4.25,8-4.25,20.66s.42,16.83,4.25,20.74a14.56,14.56,0,0,0,10.45,4.25,14.76,14.76,0,0,0,11.48-5.18c2.46-3,3.4-6.29,3.4-11v-4.59H497.09v-5.69h21.34v9.6C518.43,397.62,517,402.3,513.24,406.29Z"/><path class="cls-1" d="M531.47,412.75V352.23h6.46V407h31v5.78Z"/><path class="cls-1" d="M612.7,407a22.17,22.17,0,0,1-30.94,0c-5.7-5.69-5.7-11.64-5.7-24.48s0-18.79,5.7-24.48a22.17,22.17,0,0,1,30.94,0c5.7,5.69,5.7,11.64,5.7,24.48S618.4,401.28,612.7,407Zm-5-45.14a14.8,14.8,0,0,0-20.92,0c-3.82,3.91-4.25,8-4.25,20.66s.43,16.75,4.25,20.66a14.8,14.8,0,0,0,20.92,0c3.82-3.91,4.25-8,4.25-20.66S611.51,365.74,607.69,361.83Z"/><path class="cls-1" d="M655.31,412.75H631.76V352.23h22.79c10.54,0,17.85,6,17.85,16.15a13.87,13.87,0,0,1-8.93,13.26A14.64,14.64,0,0,1,673.33,396C673.33,407,666,412.75,655.31,412.75ZM654,358H638.22v21H654c6.71,0,11.9-3.32,11.9-10.55S660.75,358,654,358Zm.68,26.78h-16.5V407h16.5c7.48,0,12.15-4.33,12.15-11.13S662.2,384.79,654.72,384.79Z"/><path class="cls-1" d="M723.27,412.75l-4.85-13.68H692l-4.85,13.68h-6.88l22.27-60.52H708l22.18,60.52Zm-17.94-51.26-11.39,32h22.61Z"/><path class="cls-1" d="M740.39,412.75V352.23h6.46V407H777.8v5.78Z"/><path class="cls-1" d="M516.81,492.75l-32.13-48.54v48.54h-6.46V432.23h6.12l32.13,48.37V432.23h6.46v60.52Z"/><path class="cls-1" d="M538,492.75V432.23h37.57V438H544.47v21.33H571v5.79H544.47V487h31.11v5.78Z"/><path class="cls-1" d="M608.6,438v54.74h-6.46V438H584.63v-5.78h41.48V438Z"/><path class="cls-1" d="M688.07,492.75h-6L668.6,444.3l-13.43,48.45h-6l-15.47-60.52h6.88L652.37,481l13.34-48.79h5.79L684.84,481l11.82-48.79h6.88Z"/><path class="cls-1" d="M747.3,487a22.18,22.18,0,0,1-30.95,0c-5.69-5.69-5.69-11.64-5.69-24.48s0-18.79,5.69-24.48a22.18,22.18,0,0,1,30.95,0C753,443.7,753,449.65,753,462.49S753,481.28,747.3,487Zm-5-45.14a14.79,14.79,0,0,0-20.91,0c-3.83,3.91-4.25,8-4.25,20.66s.42,16.75,4.25,20.66a14.79,14.79,0,0,0,20.91,0c3.83-3.91,4.25-8,4.25-20.66S746.11,445.74,742.28,441.83Z"/><path class="cls-1" d="M801.13,492.75l-13.77-26.86H772.82v26.86h-6.46V432.23h23.21c10.54,0,17.93,6.37,17.93,16.83,0,8.84-5.35,14.62-13.17,16.24l14.36,27.45ZM789,438H772.82v22.18H789c7.06,0,12.07-3.65,12.07-11.05S796,438,789,438Z"/><path class="cls-1" d="M858.24,492.75l-18.45-32.22L827,475.84v16.91h-6.46V432.23H827V467l28.22-34.77h7.91l-19,23.37,21.76,37.15Z"/><path class="cls-1" d="M518.71,47.48a80.69,80.69,0,0,0-75.77,52.93l0,0c-.24.68-.46,1.37-.69,2s-.46,1.38-.68,2.08C424.39,158.45,428.62,229,429.29,238.51l-.52.64.56-.08c0,.34,0,.56,0,.56l.52-.64c9.54-1.38,81.33-12.56,130.42-41.72l.28-.17A80.67,80.67,0,0,0,518.71,47.48Z"/><path class="cls-1" d="M284,552.52a133,133,0,0,0,124.84-87.2l0-.06c.41-1.11.77-2.25,1.15-3.38s.75-2.27,1.12-3.41c28.26-88.79,21.29-205.08,20.2-220.68l.85-1.06-.92.13c0-.56-.07-.93-.07-.93l-.85,1.06c-15.71,2.28-134,20.7-214.87,68.74L215,306a132.92,132.92,0,0,0,69,246.52Z"/><path class="cls-2" d="M517.82,70.42a57.73,57.73,0,1,0,57.72,57.84A57.78,57.78,0,0,0,517.82,70.42ZM517.61,177a48.88,48.88,0,1,1,49.06-48.79A48.93,48.93,0,0,1,517.61,177Zm41-51.91a1.29,1.29,0,0,1,1.36,1.37v1.86c0,13.16-9.49,23-22.55,22.93-12.81,0-22.12-9.85-22.09-23.14s9.37-23.07,22.3-23A22.41,22.41,0,0,1,554.38,112a1.36,1.36,0,0,1,0,1.87l-3.74,4.09a1.16,1.16,0,0,1-1.86,0c-3.35-3.36-6.58-4.85-11.31-4.86-8,0-13.69,6.3-13.71,15.12s5.69,15.16,13.65,15.17c7.09,0,12.07-3.7,13.83-10.28l-13.56,0a1.27,1.27,0,0,1-1.36-1.25v-5.34a1.3,1.3,0,0,1,1.37-1.36l20.89,0m-76.86,11a1.18,1.18,0,0,1,1.87.12c3.35,4.6,7.57,7,13,7,5,0,8-2,8-5.07,0-2.73-1.85-4.35-6.58-5.73l-7.45-2.12c-7.09-2-11.31-6.73-11.3-12.44,0-7.57,6.87-12.9,16.44-12.88,6.35,0,11.69,2.26,15.41,6.49a1.34,1.34,0,0,1,0,1.86l-3.87,4a1.05,1.05,0,0,1-1.86,0c-2.86-3.11-6-4.73-9.69-4.73-5.1,0-8.34,2.09-8.34,5.19,0,2.49,2,4.23,6.95,5.6l7.95,2.25c7.21,2,10.69,6,10.68,12.56,0,7.82-6.87,13-16.82,13-7.46,0-13.18-2.76-18.39-9a1.21,1.21,0,0,1,0-1.74l4-4.33"/></svg>